<svg xmlns="http://www.w3.org/2000/svg" viewBox="0 0 16 16"><path fill="none" stroke="#e0e0e0" stroke-linecap="round" stroke-linejoin="round" stroke-miterlimit="10" stroke-width="1.5" d="M1.7 2h13v9.1H7.5l-2.9 2.6v-2.6H1.8z" style="stroke-width:1;stroke-dasharray:none"/><path d="M3.305 4.018v4.575a.356.356 45 0 0 .356.356h1.573a.56.56 147.482 0 0 .506-.323l.76-1.632h2.973l.468 1.322h1.268l.55-1.322h1.008a.356.356 135 0 0 .356-.356V5.96a.356.356 45 0 0-.356-.356H6.5l-.759-1.62a.56.56 32.441 0 0-.507-.322H3.66a.356.356 135 0 0-.356.356m1.113.779h.399a.45.45 34.142 0 1 .42.284l.496 1.246v.002l.002.004h-.002l-.531 1.332a.315.315 145.858 0 1-.292.199H4.51a.417.417 45 0 1-.417-.418V5.121a.324.324 135 0 1 .324-.324" style="fill:#e0e0e0"/></svg>