<svg xmlns="http://www.w3.org/2000/svg" viewBox="0 0 16 16"><path d="M8.498 2.047c-.117-.015-4.11-.5-4.478 4.18A8 8 0 0 0 4 6.54c-.104 2.13.165 5.366-2.07 6.457a.6.6 0 0 0-.145.037q-.006.004-.008.008 0 .004.004.008c.176.146 6.066.061 6.262.058 1.508.023 5.666.065 6.115-.043a.1.1 0 0 0 .037-.015q.005-.004.004-.008c-.004-.013-2.036-.01-2.209-5.447h0" style="opacity:1;fill:none;stroke:#e0e0e0;stroke-width:1.5;stroke-linecap:round;stroke-linejoin:round;stroke-miterlimit:10;stop-color:#000;stop-opacity:1"/><path d="M9.873 13.742a1.928 2.01 0 0 1-.964 1.74 1.928 2.01 0 0 1-1.928 0 1.928 2.01 0 0 1-.964-1.74h1.928Z" style="font-variation-settings:normal;opacity:1;fill:#e0e0e0;fill-opacity:1;stroke:#e0e0e0;stroke-width:0;stroke-linecap:round;stroke-linejoin:round;stroke-miterlimit:10;stroke-dasharray:none;stroke-dashoffset:0;stroke-opacity:1"/><circle cx="11.411" cy="4.089" r="2.22" style="font-variation-settings:normal;opacity:1;fill:#e0e0e0;fill-opacity:1;stroke:#e0e0e0;stroke-width:0;stroke-linecap:round;stroke-linejoin:round;stroke-miterlimit:10;stroke-dasharray:none;stroke-dashoffset:0;stroke-opacity:1"/></svg>