<svg xmlns="http://www.w3.org/2000/svg" viewBox="0 0 16 16"><path d="m11.932 2.744-1.089-.199-.983 1.416a4 4 0 0 0-.97.225l-1.635-.778-.845.713.474 1.693q-.266.417-.426.89l-1.623.768.016 1.104 1.62.707q.15.436.417.854l.021.032-.426 1.733.868.685 1.586-.816q.476.166.971.21l1.047 1.408 1.082-.233.385-1.771c.28-.174.541-.383.774-.626l1.72.088.51-.982-1.142-1.454q.051-.495-.015-.973l1.15-1.297-.453-1.01-1.845-.012a4 4 0 0 0-.736-.58Zm-.955 2.078a3.22 3.22 0 0 1 2.454 3.845c-.314 1.42-1.385 2.267-2.587 2.48-1.201.213-2.5-.216-3.281-1.441s-.624-2.583.075-3.583 1.919-1.615 3.339-1.301" style="fill:#e0e0e0;fill-opacity:1;stroke-width:.801266;stroke-linejoin:round"/><path d="M1.46 5.184h2.615" style="font-variation-settings:normal;opacity:1;vector-effect:none;fill:none;fill-opacity:1;stroke:#e0e0e0;stroke-width:1;stroke-linecap:round;stroke-linejoin:round;stroke-miterlimit:4;stroke-dasharray:none;stroke-dashoffset:0;stroke-opacity:1;-inkscape-stroke:none"/><path d="M1.46 10.816h2.615" style="font-variation-settings:normal;vector-effect:none;fill:none;fill-opacity:1;stroke:#e0e0e0;stroke-width:1;stroke-linecap:round;stroke-linejoin:round;stroke-miterlimit:4;stroke-dasharray:none;stroke-dashoffset:0;stroke-opacity:1;-inkscape-stroke:none"/><path d="M.773 8h2.554" style="font-variation-settings:normal;opacity:1;vector-effect:none;fill:none;fill-opacity:1;stroke:#e0e0e0;stroke-width:1;stroke-linecap:round;stroke-linejoin:round;stroke-miterlimit:4;stroke-dasharray:none;stroke-dashoffset:0;stroke-opacity:1;-inkscape-stroke:none"/></svg>